<?xml version="1.0" standalone="no"?>
<!DOCTYPE svg PUBLIC "-//W3C//DTD SVG 20010904//EN"
 "http://www.w3.org/TR/2001/REC-SVG-20010904/DTD/svg10.dtd">
<svg version="1.0" xmlns="http://www.w3.org/2000/svg"
 width="512.000000pt" height="512.000000pt" viewBox="0 0 512.000000 512.000000"
 preserveAspectRatio="xMidYMid meet">
<metadata>
Created by potrace 1.14, written by Peter Selinger 2001-2017
</metadata>
<g transform="translate(0.000000,512.000000) scale(0.100000,-0.100000)"
fill="#000000" stroke="none">
<path d="M0 2560 l0 -2560 2560 0 2560 0 0 2560 0 2560 -2560 0 -2560 0 0
-2560z m1756 1081 c-81 -97 -176 -222 -176 -235 0 -3 49 -6 110 -6 120 0 195
-12 253 -42 52 -26 123 -93 152 -142 13 -23 121 -324 240 -671 119 -346 220
-633 223 -637 4 -4 105 280 226 630 120 350 229 655 242 678 28 49 98 116 151
142 58 30 133 42 253 42 61 0 110 4 110 9 0 14 -107 155 -190 250 l-74 85 64
-45 c78 -53 214 -186 258 -251 l33 -48 246 -2 247 -3 -446 -388 -445 -387
-333 -570 c-184 -314 -336 -570 -339 -570 -3 0 -155 255 -337 568 l-332 567
-447 390 -447 390 248 3 249 3 25 41 c34 56 161 183 245 246 39 28 71 52 73
52 1 0 -35 -44 -82 -99z m-376 -816 c0 -93 23 -239 55 -350 33 -115 129 -311
193 -396 125 -164 331 -307 562 -389 l85 -31 86 -142 c48 -78 85 -143 84 -145
-8 -9 -193 31 -295 64 -203 64 -359 163 -517 327 -229 239 -340 473 -362 766
-10 139 2 339 26 425 4 16 10 13 44 -20 38 -37 39 -40 39 -109z m2461 40 c7
-44 12 -145 12 -225 0 -354 -102 -600 -362 -873 -165 -172 -307 -263 -518
-331 -108 -34 -281 -71 -291 -61 -3 2 33 68 79 145 l84 140 77 26 c307 102
557 315 683 581 83 174 135 384 135 548 0 78 1 80 37 117 44 45 46 43 64 -67z"/>
</g>
</svg>
